<?xml version="1.0" encoding="utf-8"?>
<!-- Generator: Adobe Illustrator 24.1.2, SVG Export Plug-In . SVG Version: 6.00 Build 0)  -->
<svg version="1.1" xmlns="http://www.w3.org/2000/svg" xmlns:xlink="http://www.w3.org/1999/xlink" x="0px" y="0px"
	 viewBox="0 0 320 320" style="enable-background:new 0 0 320 320;" xml:space="preserve">
<style type="text/css">
	.st0{fill:#FBB03B;}
	.st1{fill:#F2F2F2;}
	.st2{fill:none;stroke:#000000;stroke-width:10;stroke-miterlimit:10;}
	.st3{fill:none;stroke:#000000;stroke-miterlimit:10;}
</style>
<g id="レイヤー_1">
	<g>
		<rect x="-31.5" y="-10.5" class="st0" width="403" height="359"/>
		<path d="M371-10v358H-31V-10H371 M372-11H-32v360h404V-11L372-11z"/>
	</g>
</g>
<g id="レイヤー_2">
	<g id="XMLID_1_">
		<g>
			<path d="M260,135c0,4.94-0.36,9.8-1.06,14.56l-0.44-0.06l-79-51l-116,62l-0.2,0.05C61.14,152.4,60,143.83,60,135
				c0-55.23,44.77-100,100-100S260,79.77,260,135z"/>
			<path class="st1" d="M258.5,149.5l0.44,0.06c-5.74,39.43-34.49,71.39-72.19,81.82c-8.51,2.36-17.48,3.62-26.75,3.62
				s-18.24-1.26-26.75-3.62c-34.12-9.44-60.92-36.53-69.95-70.83l0.2-0.05l116-62L258.5,149.5z"/>
			<path d="M185.34,244.32C211.47,264.33,230,314.4,230,373c0,76.22-31.34,138-70,138s-70-61.78-70-138
				c0-58.6,18.53-108.67,44.66-128.68C138.45,254.64,148.37,262,160,262S181.55,254.64,185.34,244.32z"/>
			<path class="st1" d="M160,235c8.94,0,17.48,3.3,25.34,9.32C181.55,254.64,171.63,262,160,262s-21.55-7.36-25.34-17.68
				C142.52,238.3,151.06,235,160,235z"/>
		</g>
		<g>
			<path class="st2" d="M185.34,244.32C211.47,264.33,230,314.4,230,373c0,76.22-31.34,138-70,138s-70-61.78-70-138
				c0-58.6,18.53-108.67,44.66-128.68"/>
			<path class="st2" d="M160,235c8.94,0,17.48,3.3,25.34,9.32C181.55,254.64,171.63,262,160,262s-21.55-7.36-25.34-17.68
				C142.52,238.3,151.06,235,160,235z"/>
			<path class="st2" d="M63.3,160.55C61.14,152.4,60,143.83,60,135c0-55.23,44.77-100,100-100s100,44.77,100,100
				c0,4.94-0.36,9.8-1.06,14.56c-5.74,39.43-34.49,71.39-72.19,81.82c-8.51,2.36-17.48,3.62-26.75,3.62s-18.24-1.26-26.75-3.62
				C99.13,221.94,72.33,194.85,63.3,160.55z"/>
			<line class="st2" x1="179.5" y1="98.5" x2="63.5" y2="160.5"/>
			<line class="st2" x1="258.5" y1="149.5" x2="179.5" y2="98.5"/>
		</g>
	</g>
	<line class="st3" x1="-195.5" y1="124.5" x2="-195.5" y2="121.5"/>
</g>
</svg>
